<svg width="20" height="20" viewBox="0 0 20 20" fill="none" xmlns="http://www.w3.org/2000/svg">
<path fill-rule="evenodd" clip-rule="evenodd" d="M4.1665 4.79134V5.52051C4.1665 5.69238 4.30713 5.83301 4.479 5.83301H15.5207C15.6925 5.83301 15.8332 5.69238 15.8332 5.52051V4.79134C15.8332 4.44499 15.5545 4.16634 15.2082 4.16634H12.2915L12.0467 3.67936C11.9399 3.46582 11.7238 3.33301 11.4868 3.33301H8.51025C8.27328 3.33301 8.05713 3.46582 7.95296 3.67936L7.70817 4.16634H4.7915C4.44515 4.16634 4.1665 4.44499 4.1665 4.79134ZM14.4478 15.4945L14.979 6.99707C14.9894 6.81738 14.8462 6.66634 14.6691 6.66634H5.33317C5.15348 6.66634 5.01025 6.81738 5.02067 6.99707L5.55192 15.4945C5.59359 16.1533 6.14046 16.6663 6.79932 16.6663H13.2004C13.8592 16.6663 14.4061 16.1533 14.4478 15.4945Z" fill="#798491"/>
</svg>
